<svg xmlns="http://www.w3.org/2000/svg" xmlns:xlink="http://www.w3.org/1999/xlink" version="1.1" width="256" height="256" viewBox="0 0 256 256" xml:space="preserve">
<desc>Created with Fabric.js 1.7.22</desc>
<defs>
</defs>
<g transform="translate(128 128) scale(0.72 0.72)" style="">
	<g style="stroke: none; stroke-width: 0; stroke-dasharray: none; stroke-linecap: butt; stroke-linejoin: miter; stroke-miterlimit: 10; fill: none; fill-rule: nonzero; opacity: 1;" transform="translate(-175.05 -175.05000000000004) scale(3.89 3.89)" >
	<circle cx="45" cy="45" r="45" style="stroke: none; stroke-width: 1; stroke-dasharray: none; stroke-linecap: butt; stroke-linejoin: miter; stroke-miterlimit: 10; fill: rgb(32,196,203); fill-rule: nonzero; opacity: 1;" transform="  matrix(1 0 0 1 0 0) "/>
	<path d="M 68.367 71.277 c 0.146 -0.175 0.28 -0.355 0.409 -0.539 c 0.02 -0.029 0.042 -0.056 0.062 -0.084 c 0.116 -0.17 0.221 -0.345 0.322 -0.521 c 0.026 -0.046 0.055 -0.091 0.081 -0.137 c 0.092 -0.168 0.174 -0.339 0.253 -0.511 c 0.027 -0.059 0.056 -0.117 0.082 -0.177 c 0.071 -0.165 0.133 -0.333 0.192 -0.501 c 0.025 -0.07 0.051 -0.14 0.074 -0.211 c 0.052 -0.162 0.097 -0.325 0.138 -0.49 c 0.021 -0.081 0.041 -0.162 0.059 -0.244 c 0.035 -0.158 0.063 -0.316 0.088 -0.475 c 0.014 -0.091 0.028 -0.181 0.039 -0.272 c 0.019 -0.153 0.033 -0.305 0.043 -0.458 c 0.007 -0.099 0.011 -0.199 0.014 -0.298 c 0.004 -0.147 0.005 -0.293 0.002 -0.44 c -0.003 -0.107 -0.008 -0.213 -0.015 -0.319 c -0.009 -0.14 -0.02 -0.28 -0.036 -0.419 c -0.013 -0.114 -0.031 -0.227 -0.049 -0.34 c -0.021 -0.132 -0.043 -0.264 -0.07 -0.395 c -0.025 -0.119 -0.056 -0.237 -0.086 -0.355 c -0.032 -0.124 -0.063 -0.248 -0.101 -0.37 c -0.038 -0.124 -0.084 -0.245 -0.128 -0.367 c -0.042 -0.115 -0.082 -0.23 -0.129 -0.344 c -0.053 -0.127 -0.114 -0.251 -0.174 -0.376 c -0.05 -0.105 -0.097 -0.211 -0.152 -0.314 c -0.07 -0.132 -0.15 -0.259 -0.228 -0.387 c -0.056 -0.092 -0.108 -0.186 -0.168 -0.277 c -0.094 -0.142 -0.2 -0.278 -0.304 -0.415 c -0.055 -0.072 -0.104 -0.146 -0.161 -0.216 c -0.167 -0.204 -0.345 -0.403 -0.535 -0.593 l -5.143 -5.143 c -0.19 -0.19 -0.389 -0.368 -0.593 -0.535 c -0.07 -0.057 -0.144 -0.106 -0.215 -0.161 c -0.137 -0.105 -0.274 -0.21 -0.416 -0.305 c -0.09 -0.06 -0.184 -0.111 -0.275 -0.167 c -0.128 -0.078 -0.256 -0.158 -0.388 -0.228 c -0.103 -0.055 -0.209 -0.102 -0.313 -0.152 c -0.125 -0.06 -0.249 -0.121 -0.377 -0.174 c -0.114 -0.047 -0.229 -0.087 -0.345 -0.129 c -0.121 -0.044 -0.242 -0.089 -0.365 -0.127 c -0.123 -0.038 -0.248 -0.07 -0.373 -0.102 c -0.117 -0.03 -0.234 -0.061 -0.352 -0.086 c -0.132 -0.028 -0.265 -0.05 -0.398 -0.071 c -0.112 -0.018 -0.224 -0.035 -0.337 -0.048 c -0.14 -0.016 -0.28 -0.027 -0.42 -0.036 c -0.106 -0.007 -0.212 -0.013 -0.319 -0.015 c -0.147 -0.004 -0.294 -0.003 -0.441 0.002 c -0.099 0.003 -0.197 0.007 -0.296 0.014 c -0.154 0.01 -0.307 0.024 -0.461 0.043 c -0.09 0.011 -0.18 0.024 -0.27 0.039 c -0.16 0.025 -0.319 0.054 -0.478 0.089 c -0.081 0.018 -0.161 0.038 -0.241 0.058 c -0.165 0.042 -0.329 0.087 -0.492 0.139 c -0.07 0.023 -0.139 0.048 -0.209 0.073 c -0.17 0.06 -0.338 0.122 -0.504 0.193 c -0.059 0.025 -0.116 0.054 -0.174 0.08 c -0.173 0.079 -0.345 0.162 -0.514 0.254 c -0.045 0.025 -0.089 0.053 -0.134 0.079 c -0.177 0.102 -0.353 0.207 -0.524 0.324 c -0.028 0.019 -0.054 0.041 -0.082 0.06 c -0.184 0.129 -0.366 0.264 -0.541 0.41 l 0 0 l 0 0 c -0.182 0.152 -0.36 0.309 -0.531 0.479 l -3.479 3.479 c -0.446 0.446 -1.168 0.446 -1.614 0 L 31.234 43.727 c -0.446 -0.446 -0.446 -1.168 0 -1.614 l 3.479 -3.479 c 0.17 -0.17 0.327 -0.349 0.479 -0.531 l 0 0 c 0 0 0 0 0 0 c 0.146 -0.175 0.28 -0.355 0.409 -0.539 c 0.02 -0.029 0.042 -0.056 0.062 -0.084 c 0.116 -0.17 0.221 -0.345 0.322 -0.521 c 0.026 -0.046 0.055 -0.091 0.081 -0.137 c 0.092 -0.168 0.174 -0.339 0.253 -0.511 c 0.027 -0.059 0.056 -0.117 0.082 -0.177 c 0.071 -0.165 0.133 -0.333 0.192 -0.501 c 0.025 -0.07 0.051 -0.14 0.074 -0.211 c 0.052 -0.162 0.097 -0.325 0.138 -0.49 c 0.021 -0.081 0.041 -0.162 0.059 -0.244 c 0.035 -0.158 0.063 -0.316 0.088 -0.475 c 0.014 -0.091 0.028 -0.181 0.039 -0.272 c 0.019 -0.153 0.033 -0.305 0.043 -0.458 c 0.007 -0.099 0.011 -0.199 0.014 -0.298 c 0.004 -0.147 0.005 -0.293 0.002 -0.44 c -0.003 -0.107 -0.008 -0.213 -0.015 -0.319 c -0.009 -0.14 -0.02 -0.28 -0.036 -0.419 c -0.013 -0.114 -0.031 -0.227 -0.049 -0.34 c -0.021 -0.132 -0.043 -0.264 -0.07 -0.395 c -0.025 -0.119 -0.056 -0.237 -0.086 -0.355 c -0.032 -0.124 -0.063 -0.248 -0.101 -0.37 c -0.038 -0.124 -0.084 -0.245 -0.128 -0.367 c -0.042 -0.115 -0.082 -0.23 -0.129 -0.344 c -0.053 -0.127 -0.114 -0.251 -0.174 -0.376 c -0.05 -0.105 -0.097 -0.211 -0.152 -0.314 c -0.07 -0.132 -0.15 -0.259 -0.228 -0.387 c -0.056 -0.092 -0.108 -0.186 -0.168 -0.277 c -0.094 -0.142 -0.2 -0.278 -0.304 -0.415 c -0.055 -0.072 -0.104 -0.146 -0.161 -0.216 c -0.167 -0.204 -0.345 -0.403 -0.535 -0.593 l -5.143 -5.143 c -0.19 -0.19 -0.389 -0.368 -0.593 -0.535 c -0.07 -0.057 -0.144 -0.106 -0.215 -0.161 c -0.137 -0.105 -0.274 -0.21 -0.416 -0.305 c -0.09 -0.06 -0.184 -0.111 -0.275 -0.167 c -0.128 -0.078 -0.256 -0.158 -0.388 -0.228 c -0.103 -0.055 -0.209 -0.102 -0.313 -0.152 c -0.125 -0.06 -0.249 -0.121 -0.377 -0.174 c -0.114 -0.047 -0.229 -0.087 -0.345 -0.129 c -0.121 -0.044 -0.242 -0.089 -0.365 -0.127 c -0.123 -0.038 -0.248 -0.07 -0.373 -0.102 c -0.117 -0.03 -0.234 -0.061 -0.352 -0.086 c -0.132 -0.028 -0.265 -0.05 -0.398 -0.071 c -0.112 -0.018 -0.224 -0.035 -0.337 -0.048 c -0.14 -0.016 -0.28 -0.027 -0.42 -0.036 c -0.106 -0.007 -0.212 -0.013 -0.319 -0.015 c -0.147 -0.004 -0.294 -0.003 -0.441 0.002 c -0.099 0.003 -0.197 0.007 -0.296 0.014 c -0.154 0.01 -0.307 0.024 -0.461 0.043 c -0.09 0.011 -0.18 0.024 -0.27 0.039 c -0.16 0.025 -0.319 0.054 -0.478 0.089 c -0.081 0.018 -0.161 0.038 -0.241 0.058 c -0.165 0.042 -0.329 0.087 -0.492 0.139 c -0.07 0.023 -0.139 0.048 -0.209 0.073 c -0.17 0.06 -0.338 0.122 -0.504 0.193 c -0.059 0.025 -0.116 0.054 -0.174 0.08 c -0.173 0.079 -0.345 0.162 -0.514 0.254 c -0.045 0.025 -0.089 0.053 -0.134 0.079 c -0.177 0.102 -0.353 0.207 -0.524 0.324 c -0.028 0.019 -0.054 0.041 -0.082 0.06 c -0.184 0.129 -0.366 0.264 -0.541 0.41 l 0 0 l 0 0 c -0.182 0.152 -0.36 0.309 -0.531 0.479 c -7.131 6.785 -7.768 22.5 9.78 39.916 c 17.417 17.548 33.131 16.91 39.916 9.78 C 68.058 71.638 68.215 71.459 68.367 71.277 L 68.367 71.277 C 68.367 71.277 68.367 71.277 68.367 71.277 z" style="stroke: none; stroke-width: 1; stroke-dasharray: none; stroke-linecap: butt; stroke-linejoin: miter; stroke-miterlimit: 10; fill: rgb(27,167,173); fill-rule: nonzero; opacity: 1;" transform=" matrix(1 0 0 1 0 0) " stroke-linecap="round" />
	<path d="M 71.64 68.004 c 0.146 -0.175 0.28 -0.355 0.409 -0.539 c 0.02 -0.029 0.042 -0.056 0.062 -0.084 c 0.116 -0.17 0.221 -0.345 0.322 -0.521 c 0.026 -0.046 0.055 -0.091 0.081 -0.137 c 0.092 -0.168 0.174 -0.339 0.253 -0.511 c 0.027 -0.059 0.056 -0.117 0.082 -0.177 c 0.071 -0.165 0.133 -0.333 0.192 -0.501 c 0.025 -0.07 0.051 -0.14 0.074 -0.211 c 0.052 -0.162 0.097 -0.325 0.138 -0.49 c 0.021 -0.081 0.041 -0.162 0.059 -0.244 c 0.035 -0.158 0.063 -0.316 0.088 -0.475 c 0.014 -0.091 0.028 -0.181 0.039 -0.272 c 0.019 -0.153 0.033 -0.305 0.043 -0.458 c 0.007 -0.099 0.011 -0.199 0.014 -0.298 c 0.004 -0.147 0.005 -0.293 0.002 -0.44 c -0.003 -0.107 -0.008 -0.213 -0.015 -0.319 c -0.009 -0.14 -0.02 -0.28 -0.036 -0.419 c -0.013 -0.114 -0.031 -0.227 -0.049 -0.34 c -0.021 -0.132 -0.043 -0.264 -0.07 -0.395 c -0.025 -0.119 -0.056 -0.237 -0.086 -0.355 c -0.032 -0.124 -0.063 -0.248 -0.101 -0.37 c -0.038 -0.124 -0.084 -0.245 -0.128 -0.367 c -0.042 -0.115 -0.082 -0.23 -0.129 -0.344 c -0.053 -0.127 -0.114 -0.251 -0.174 -0.376 c -0.05 -0.105 -0.097 -0.211 -0.152 -0.314 c -0.07 -0.132 -0.15 -0.259 -0.228 -0.387 c -0.056 -0.092 -0.108 -0.186 -0.168 -0.277 c -0.094 -0.142 -0.2 -0.278 -0.304 -0.415 c -0.055 -0.072 -0.104 -0.146 -0.161 -0.216 c -0.167 -0.204 -0.345 -0.403 -0.535 -0.593 l -5.143 -5.143 c -0.19 -0.19 -0.389 -0.368 -0.593 -0.535 c -0.07 -0.057 -0.144 -0.106 -0.215 -0.161 c -0.137 -0.105 -0.274 -0.21 -0.416 -0.305 c -0.09 -0.06 -0.184 -0.111 -0.275 -0.167 c -0.128 -0.078 -0.256 -0.158 -0.388 -0.228 c -0.103 -0.055 -0.209 -0.102 -0.313 -0.152 c -0.125 -0.06 -0.249 -0.121 -0.377 -0.174 c -0.114 -0.047 -0.229 -0.087 -0.345 -0.129 c -0.121 -0.044 -0.242 -0.089 -0.365 -0.127 c -0.123 -0.038 -0.248 -0.07 -0.373 -0.102 c -0.117 -0.03 -0.234 -0.061 -0.352 -0.086 c -0.132 -0.028 -0.265 -0.05 -0.398 -0.071 c -0.112 -0.018 -0.224 -0.035 -0.337 -0.048 c -0.14 -0.016 -0.28 -0.027 -0.42 -0.036 c -0.106 -0.007 -0.212 -0.013 -0.319 -0.015 c -0.147 -0.004 -0.294 -0.003 -0.441 0.002 c -0.099 0.003 -0.197 0.007 -0.296 0.014 c -0.154 0.01 -0.307 0.024 -0.461 0.043 c -0.09 0.011 -0.18 0.024 -0.27 0.039 c -0.16 0.025 -0.319 0.054 -0.478 0.089 c -0.081 0.018 -0.161 0.038 -0.241 0.058 c -0.165 0.042 -0.329 0.087 -0.492 0.139 c -0.07 0.023 -0.139 0.048 -0.209 0.073 c -0.17 0.06 -0.338 0.122 -0.504 0.193 c -0.059 0.025 -0.116 0.054 -0.174 0.08 c -0.173 0.079 -0.345 0.162 -0.514 0.254 c -0.045 0.025 -0.089 0.053 -0.134 0.079 c -0.177 0.102 -0.353 0.207 -0.524 0.324 c -0.028 0.019 -0.054 0.041 -0.082 0.06 c -0.184 0.129 -0.366 0.264 -0.541 0.41 l 0 0 l 0 0 c -0.182 0.152 -0.36 0.309 -0.531 0.479 l -3.479 3.479 c -0.446 0.446 -1.168 0.446 -1.614 0 L 34.507 40.454 c -0.446 -0.446 -0.446 -1.168 0 -1.614 l 3.479 -3.479 c 0.17 -0.17 0.327 -0.349 0.479 -0.531 l 0 0 c 0 0 0 0 0 0 c 0.146 -0.175 0.28 -0.355 0.409 -0.539 c 0.02 -0.029 0.042 -0.056 0.062 -0.084 c 0.116 -0.17 0.221 -0.345 0.322 -0.521 c 0.026 -0.046 0.055 -0.091 0.081 -0.137 c 0.092 -0.168 0.174 -0.339 0.253 -0.511 c 0.027 -0.059 0.056 -0.117 0.082 -0.177 c 0.071 -0.165 0.133 -0.333 0.192 -0.501 c 0.025 -0.07 0.051 -0.14 0.074 -0.211 c 0.052 -0.162 0.097 -0.325 0.138 -0.49 c 0.021 -0.081 0.041 -0.162 0.059 -0.244 c 0.035 -0.158 0.063 -0.316 0.088 -0.475 c 0.014 -0.091 0.028 -0.181 0.039 -0.272 c 0.019 -0.153 0.033 -0.305 0.043 -0.458 c 0.007 -0.099 0.011 -0.199 0.014 -0.298 c 0.004 -0.147 0.005 -0.293 0.002 -0.44 c -0.003 -0.107 -0.008 -0.213 -0.015 -0.319 c -0.009 -0.14 -0.02 -0.28 -0.036 -0.419 c -0.013 -0.114 -0.031 -0.227 -0.049 -0.34 c -0.021 -0.132 -0.043 -0.264 -0.07 -0.395 c -0.025 -0.119 -0.056 -0.237 -0.086 -0.355 c -0.032 -0.124 -0.063 -0.248 -0.101 -0.37 c -0.038 -0.124 -0.084 -0.245 -0.128 -0.367 c -0.042 -0.115 -0.082 -0.23 -0.129 -0.344 c -0.053 -0.127 -0.114 -0.251 -0.174 -0.376 c -0.05 -0.105 -0.097 -0.211 -0.152 -0.314 c -0.07 -0.132 -0.15 -0.259 -0.228 -0.387 c -0.056 -0.092 -0.108 -0.186 -0.168 -0.277 c -0.094 -0.142 -0.2 -0.278 -0.304 -0.415 c -0.055 -0.072 -0.104 -0.146 -0.161 -0.216 c -0.167 -0.204 -0.345 -0.403 -0.535 -0.593 l -5.143 -5.143 c -0.19 -0.19 -0.389 -0.368 -0.593 -0.535 c -0.07 -0.057 -0.144 -0.106 -0.215 -0.161 c -0.137 -0.105 -0.274 -0.21 -0.416 -0.305 c -0.09 -0.06 -0.184 -0.111 -0.275 -0.167 c -0.128 -0.078 -0.256 -0.158 -0.388 -0.228 c -0.103 -0.055 -0.209 -0.102 -0.313 -0.152 c -0.125 -0.06 -0.249 -0.121 -0.377 -0.174 c -0.114 -0.047 -0.229 -0.087 -0.345 -0.129 c -0.121 -0.044 -0.242 -0.089 -0.365 -0.127 c -0.123 -0.038 -0.248 -0.07 -0.373 -0.102 c -0.117 -0.03 -0.234 -0.061 -0.352 -0.086 c -0.132 -0.028 -0.265 -0.05 -0.398 -0.071 c -0.112 -0.018 -0.224 -0.035 -0.337 -0.048 c -0.14 -0.016 -0.28 -0.027 -0.42 -0.036 c -0.106 -0.007 -0.212 -0.013 -0.319 -0.015 c -0.147 -0.004 -0.294 -0.003 -0.441 0.002 c -0.099 0.003 -0.197 0.007 -0.296 0.014 c -0.154 0.01 -0.307 0.024 -0.461 0.043 c -0.09 0.011 -0.18 0.024 -0.27 0.039 c -0.16 0.025 -0.319 0.054 -0.478 0.089 c -0.081 0.018 -0.161 0.038 -0.241 0.058 c -0.165 0.042 -0.329 0.087 -0.492 0.139 c -0.07 0.023 -0.139 0.048 -0.209 0.073 c -0.17 0.06 -0.338 0.122 -0.504 0.193 c -0.059 0.025 -0.116 0.054 -0.174 0.08 c -0.173 0.079 -0.345 0.162 -0.514 0.254 c -0.045 0.025 -0.089 0.053 -0.134 0.079 c -0.177 0.102 -0.353 0.207 -0.524 0.324 c -0.028 0.019 -0.054 0.041 -0.082 0.06 c -0.184 0.129 -0.366 0.264 -0.541 0.41 l 0 0 l 0 0 c -0.182 0.152 -0.36 0.309 -0.531 0.479 c -7.131 6.785 -7.768 22.5 9.78 39.916 c 17.417 17.548 33.131 16.91 39.916 9.78 C 71.331 68.365 71.488 68.186 71.64 68.004 L 71.64 68.004 C 71.64 68.004 71.64 68.004 71.64 68.004 z" style="stroke: none; stroke-width: 1; stroke-dasharray: none; stroke-linecap: butt; stroke-linejoin: miter; stroke-miterlimit: 10; fill: rgb(255,255,255); fill-rule: nonzero; opacity: 1;" transform=" matrix(1 0 0 1 0 0) " stroke-linecap="round" />
</g>
</g>
</svg>